<svg width="175" height="175" viewBox="0 0 175 175" fill="none" xmlns="http://www.w3.org/2000/svg">
<circle cx="87.5" cy="87.5" r="87.5" fill="white"/>
<path d="M60.6251 119.035L59.7544 118.861L58.8836 119.035C44.8154 121.849 31.5341 120.284 21.8319 112.522C12.1809 104.801 5 90.0858 5 64.1944C5 37.716 10.9663 26.9587 18.8242 23.0298C22.9344 20.9747 28.2497 20.3766 35.013 21.157C41.7682 21.9365 49.563 24.0413 58.3503 26.9704L59.8935 27.4847L61.4029 26.8808C76.0931 21.0045 89.2975 18.7535 98.5726 23.082C107.27 27.1407 114.509 38.1091 114.509 64.1944C114.509 90.0858 107.328 104.801 97.677 112.522C87.9745 120.284 74.6932 121.849 60.6251 119.035Z" stroke="black" stroke-width="9"/>
<path d="M59.7543 25.7179C59.7543 10.9194 53.8349 5 41.9961 5" stroke="black" stroke-width="9" stroke-linecap="round" stroke-linejoin="round"/>

</svg>
